<svg height="24" viewBox="0 0 24 24" width="24" xmlns="http://www.w3.org/2000/svg"><g fill="#494c4e"><path d="m8 6h-3c-.553 0-1-.448-1-1s.447-1 1-1h3c.553 0 1 .448 1 1s-.447 1-1 1zm5 4h-8c-.553 0-1-.448-1-1s.447-1 1-1h8c.553 0 1 .448 1 1s-.447 1-1 1zm0 4h-8c-.553 0-1-.448-1-1s.447-1 1-1h8c.553 0 1 .448 1 1s-.447 1-1 1z"/><path d="m18 2v8c0 .55-.45 1-1 1s-1-.45-1-1v-7.5c0-.28-.22-.5-.5-.5h-13c-.28 0-.5.22-.5.5v19c0 .28.22.5.5.5h13c.28 0 .5-.22.5-.5v-.5c0-.55.45-1 1-1s1 .45 1 1v1c0 1.1-.9 2-2 2h-14c-1.1 0-2-.9-2-2v-20c0-1.1.9-2 2-2h14c1.1 0 2 .9 2 2z"/><path d="m23.87 11.882c.31.54.045 1.273-.595 1.643l-9.65 5.57c-.084.05-.176.086-.265.11l-2.656.66c-.37.092-.72-.035-.88-.314-.162-.278-.09-.65.17-.913l1.907-1.958c.063-.072.137-.123.214-.167.004-.01.012-.015.012-.015l9.65-5.57c.64-.37 1.408-.234 1.72.305l.374.65z"/></g></svg>